<svg xmlns="http://www.w3.org/2000/svg" xmlns:xlink="http://www.w3.org/1999/xlink" width="81.304" height="81.106" viewBox="0 0 81.304 81.106">
  <defs>
    <linearGradient id="linear-gradient" x1="0.5" x2="0.5" y2="1" gradientUnits="objectBoundingBox">
      <stop offset="0" stop-color="#2af598"/>
      <stop offset="1" stop-color="#4099ff"/>
    </linearGradient>
  </defs>
  <path id="address" d="M32.474,72.824v8.234L30.483,79.45A133.489,133.489,0,0,1,15.432,64.736C5.192,52.979,0,42.426,0,33.371v-.9a32.474,32.474,0,0,1,64.948,0v.9c0,.76-.04,1.533-.114,2.314l-6.351-5.794A26.138,26.138,0,0,0,6.336,32.473v.9c0,15.3,19.717,33.828,26.138,39.454Zm19.484-4.551h9.5v-9.5h-9.5ZM32.474,19.008A13.465,13.465,0,1,1,19.009,32.473,13.48,13.48,0,0,1,32.474,19.008Zm0,6.336A7.128,7.128,0,1,0,39.6,32.473,7.136,7.136,0,0,0,32.474,25.345Zm44.56,38.623-1.782-1.625V72.515a8.6,8.6,0,0,1-8.591,8.59H46.6a8.6,8.6,0,0,1-8.591-8.59V62.342l-1.782,1.625-4.27-4.681L56.631,36.778,81.3,59.287Zm-8.118-7.406L56.631,45.355,44.346,56.562V72.514A2.257,2.257,0,0,0,46.6,74.768H66.662a2.257,2.257,0,0,0,2.254-2.254Zm0,0" transform="translate(0 0.001)" fill="url(#linear-gradient)"/>
</svg>
