<svg xmlns="http://www.w3.org/2000/svg" version="1.1" xmlns:xlink="http://www.w3.org/1999/xlink" width="512" height="512" x="0" y="0" viewBox="0 0 470 470.001" style="enable-background:new 0 0 512 512" xml:space="preserve" class=""><g><path fill="#d4e1f4" d="M90 79.102h257.898c.008-22.094-17.902-40.008-40-40H50c-22.094-.008-40.004 17.906-40 40V350c-.004 22.094 17.906 40.008 40 40V119.102c-.004-22.094 17.906-40.008 40-40zM267.602 380c.02-33.629 16.93-64.996 45.011-83.496s63.582-21.656 94.489-8.402c-28.825-27.848-71.489-35.797-108.41-20.204-36.919 15.598-60.962 51.727-61.09 91.805-.13 40.078 23.68 76.363 60.5 92.195a99.797 99.797 0 0 1-30.5-71.898zm0 0" opacity="1" data-original="#d4e1f4" class=""></path><g fill="#1ae5be"><path d="M246.5 209.102h-155c-5.523 0-10 4.476-10 10 0 5.52 4.477 10 10 10h155c5.523 0 10-4.48 10-10 0-5.524-4.477-10-10-10zM184.3 274.102H91.5c-5.523 0-10 4.476-10 10 0 5.52 4.477 10 10 10h92.8c5.524 0 10-4.48 10-10 0-5.524-4.476-10-10-10zM101 78.102c5.516-.016 9.984-4.485 10-10V10c0-5.523-4.477-10-10-10S91 4.477 91 10v58.102c.016 5.515 4.484 9.984 10 10zM257 0c-5.516.016-9.984 4.484-10 10v58.102c0 5.52 4.477 10 10 10s10-4.48 10-10V10c-.016-5.516-4.484-9.984-10-10zM383.898 324.102 324.5 380.8 293.8 350c-3.894-3.895-10.206-3.895-14.1 0-3.891 3.895-3.891 10.207 0 14.102l37.698 37.699a9.842 9.842 0 0 0 7.102 2.898 9.673 9.673 0 0 0 6.898-2.8l66.403-63.5a9.956 9.956 0 0 0 3.074-6.985 9.947 9.947 0 0 0-2.773-7.113 10.175 10.175 0 0 0-14.204-.2zm0 0" fill="#1ae5be" opacity="1" data-original="#1ae5be" class=""></path></g><path fill="#4099ff" d="M357.898 251.898V79.102c-.007-27.614-22.386-49.993-50-50H50c-27.61.007-49.988 22.386-50 50V350c.012 27.61 22.39 49.988 50 50h185.102c19.242 49.281 70.84 77.887 122.832 68.102 51.992-9.786 89.66-55.196 89.668-108.102 0-53.7-38.704-98.5-89.704-108.102zM50 49.102h257.898c16.551.046 29.954 13.449 30 30V103.3H20V79.1c.012-16.566 13.438-29.988 30-30zM50 380c-16.547-.047-29.953-13.453-30-30V123.2h317.898V250h-.296a110.172 110.172 0 0 0-84.512 39.691A110.179 110.179 0 0 0 229.398 380zm287.602 70c-49.707 0-90-40.293-90-90s40.293-90 90-90c49.703 0 90 40.293 90 90-.079 49.676-40.329 89.926-90 90zm0 0" opacity="1" data-original="#0635c9" class=""></path></g></svg>