<svg xmlns="http://www.w3.org/2000/svg" xmlns:xlink="http://www.w3.org/1999/xlink" width="18.58" height="23.187" viewBox="0 0 18.58 23.187">
  <defs>
    <linearGradient id="linear-gradient" x1="0.5" x2="0.5" y2="1" gradientUnits="objectBoundingBox">
      <stop offset="0" stop-color="#252525"/>
      <stop offset="1" stop-color="#6d6d6d"/>
    </linearGradient>
  </defs>
  <g id="_026-doctor" data-name="026-doctor" transform="translate(0 0)">
    <path id="Path_253" data-name="Path 253" d="M216.837,275.878l-.378-2.643.258-.528a3.713,3.713,0,0,1-.845-.273l-.392.8.378,2.643a7.6,7.6,0,0,0,1.743.462,3.3,3.3,0,0,0,.5-.082A7.68,7.68,0,0,1,216.837,275.878Z" transform="translate(-208.172 -260.037)" fill="url(#linear-gradient)"/>
    <path id="Path_254" data-name="Path 254" d="M80.978,326.505V322.73c0-1.047,1.088-2.1,2.971-2.92a1.191,1.191,0,0,1-.1-.345C81.43,320.324,80,321.53,80,322.73v3.776a.946.946,0,0,0,.774.76h.978A.946.946,0,0,1,80.978,326.505Z" transform="translate(-79.315 -304.768)" fill="url(#linear-gradient)"/>
    <path id="Path_255" data-name="Path 255" d="M309.771,57.775a1.98,1.98,0,0,0-.4-.059.342.342,0,0,0,.328.077Z" transform="translate(-297.473 -55.818)" fill="url(#linear-gradient)"/>
    <path id="Path_256" data-name="Path 256" d="M165.817,43.827a3.283,3.283,0,0,1-1.378-2.548.342.342,0,0,0-.342-.333h-.006c-.427.007-1.046-.658-1.284-1.661-.074-.315.024-.551.159-.621s.262.054.33.131a.342.342,0,0,0,.547-.409,17.226,17.226,0,0,1-.263-2.493,3.018,3.018,0,0,1,2.526-2.974,3.052,3.052,0,0,0-.49-.04,3.017,3.017,0,0,0-3.014,3.014,17.226,17.226,0,0,0,.263,2.493.342.342,0,0,1-.547.409c-.068-.078-.2-.2-.33-.131s-.233.305-.159.621c.237,1,.857,1.669,1.284,1.661h.006a.342.342,0,0,1,.342.333,2.938,2.938,0,0,0,3.134,2.989,4.239,4.239,0,0,0,.485-.027A3.034,3.034,0,0,1,165.817,43.827Z" transform="translate(-157.12 -32.196)" fill="url(#linear-gradient)"/>
    <path id="Path_257" data-name="Path 257" d="M363.173,317.735a1.391,1.391,0,0,0,.638-2.706,10.5,10.5,0,0,0-.911-3.954.342.342,0,0,0-.617.3,9.757,9.757,0,0,1,.841,3.645,1.391,1.391,0,0,0,.048,2.717Zm-.418-1.5a.707.707,0,1,1,.553.832.707.707,0,0,1-.553-.832Z" transform="translate(-347.581 -296.605)" fill="url(#linear-gradient)"/>
    <path id="Path_258" data-name="Path 258" d="M86.446,314.593a.342.342,0,0,0,.048-.683.2.2,0,0,1-.186-.187l.709-2.463a.341.341,0,0,0,.012-.071.2.2,0,0,1,.214-.186l1.218.086a.2.2,0,0,1,.186.214.345.345,0,0,0,0,.072l.355,2.538a.2.2,0,0,1-.21.159.342.342,0,1,0-.048.683l.064,0a.885.885,0,0,0,.881-.823.343.343,0,0,0,0-.072l-.357-2.551a.886.886,0,0,0-.822-.9l-.165-.012a10,10,0,0,1,.824-2.187.342.342,0,0,0-.6-.334,11.006,11.006,0,0,0-.92,2.472l-.36-.025a.885.885,0,0,0-.942.78l-.713,2.475a.34.34,0,0,0-.012.07A.886.886,0,0,0,86.446,314.593Z" transform="translate(-84.664 -293.579)" fill="url(#linear-gradient)"/>
    <path id="Path_259" data-name="Path 259" d="M74.386,42.071a.316.316,0,0,0,.108,0h8.657a1.579,1.579,0,0,0,1.428-1.445V36.85c0-1.546-1.558-3.01-4.175-3.935a1.584,1.584,0,0,0-.712-.7c-.1-.052-.817-.309-1.453-.532l-.391-.769a4.073,4.073,0,0,0,1.416-2.625,2.77,2.77,0,0,0,1.645-2.15,1.183,1.183,0,0,0-.489-1.355.881.881,0,0,0-.351-.105,12.505,12.505,0,0,0,.411-1.9,2.674,2.674,0,0,0-3.2-2.621A3.7,3.7,0,0,0,70.8,22.586c0,.158.038.78.1,1.4.026.272.051.491.075.669a.849.849,0,0,0-.415.1,1.194,1.194,0,0,0-.512,1.386h0a2.772,2.772,0,0,0,1.641,2.149,3.966,3.966,0,0,0,1.427,2.647l-.4.828c-.811.256-1.264.407-1.345.449a1.639,1.639,0,0,0-.658.594c-2.99.977-4.7,2.452-4.7,4.048v3.776a1.6,1.6,0,0,0,1.459,1.445Zm.345-.685-.925-5.88a7.521,7.521,0,0,0,1.624.369,7.7,7.7,0,0,0,1.7-.387l-.908,5.9Zm-1.044-6.657-.378-2.643.392-.8a4.167,4.167,0,0,0,1.776.36,4.085,4.085,0,0,0,1.788-.375l.378.743-.4,2.7a7.476,7.476,0,0,1-1.816.482A7.594,7.594,0,0,1,73.687,34.729Zm6.683-.719a1.234,1.234,0,0,0,.127-.332c2.108.813,3.4,2.006,3.4,3.172v3.776a.91.91,0,0,1-.744.76H77.13L80.217,36.5a1.449,1.449,0,0,0,.275-1.052.766.766,0,0,0-.324-.512,2.042,2.042,0,0,0-.374-.185A3.491,3.491,0,0,0,80.37,34.01Zm-2.466.924.37-2.518c.531.188,1.022.366,1.1.4a.856.856,0,0,1,.441.473.484.484,0,0,1-.047.386,3.613,3.613,0,0,1-.861.94.342.342,0,0,0,.122.607,3.187,3.187,0,0,1,.755.279.115.115,0,0,1,.031.069.777.777,0,0,1-.167.539l-.009.014L77.1,40.149Zm-5.562-6.962A.342.342,0,0,0,72,27.639h-.006c-.427.007-1.046-.658-1.284-1.662-.074-.315.024-.551.159-.621s.262.054.33.131a.342.342,0,0,0,.547-.409,17.225,17.225,0,0,1-.263-2.493,3.014,3.014,0,0,1,5.4-1.842.342.342,0,0,0,.367.119A1.989,1.989,0,0,1,79.8,22.773a13.159,13.159,0,0,1-.579,2.291.342.342,0,0,0,.527.434c.058-.061.207-.194.35-.116.124.067.223.282.149.6-.237,1-.858,1.669-1.284,1.662a.342.342,0,0,0-.349.329,3.379,3.379,0,0,1-1.382,2.542,3.228,3.228,0,0,1-1.752.451,2.938,2.938,0,0,1-3.134-2.989Zm-1.114,5.323a.859.859,0,0,1,.444-.475c.083-.035.524-.179,1-.332l.378,2.64c0,.007,0,.015,0,.022l.78,4.957L71.405,36.17l-.011-.017a.811.811,0,0,1-.167-.557.126.126,0,0,1,.031-.072,3.375,3.375,0,0,1,.76-.29.342.342,0,0,0,.118-.6,3.615,3.615,0,0,1-.862-.946A.485.485,0,0,1,71.228,33.294Zm-4.543,7.332V36.85c0-1.2,1.43-2.406,3.847-3.266a1.208,1.208,0,0,0,.145.43,3.549,3.549,0,0,0,.584.749,2.16,2.16,0,0,0-.381.19.769.769,0,0,0-.324.515,1.468,1.468,0,0,0,.273,1.068l2.995,4.849H67.459A.946.946,0,0,1,66.685,40.626Z" transform="translate(-66 -18.888)" fill="url(#linear-gradient)"/>
  </g>
</svg>
