<svg xmlns="http://www.w3.org/2000/svg" width="22.167" height="21.669" viewBox="0 0 22.167 21.669">
  <g id="_037-heart-beat" data-name="037-heart-beat" transform="translate(-19 -24.32)">
    <path id="Path_281" data-name="Path 281" d="M35.461,24.324a5.716,5.716,0,0,0-5.378,3.8,5.715,5.715,0,0,0-5.378-3.8,5.153,5.153,0,0,0-4.431,2.227A7.946,7.946,0,0,0,19,31.049a11.337,11.337,0,0,0,1.725,5.676,23.882,23.882,0,0,0,3.748,4.731,37.439,37.439,0,0,0,5.432,4.481.327.327,0,0,0,.357,0,37.848,37.848,0,0,0,5.431-4.5A24.058,24.058,0,0,0,39.441,36.7a11.3,11.3,0,0,0,1.725-5.657C41.167,27.788,39.167,24.324,35.461,24.324Zm5.051,6.724a10.653,10.653,0,0,1-1.633,5.321,23.373,23.373,0,0,1-3.641,4.6,37.749,37.749,0,0,1-5.155,4.3,37.344,37.344,0,0,1-5.154-4.283,23.214,23.214,0,0,1-3.641-4.6,10.694,10.694,0,0,1-1.633-5.341c0-2.8,1.323-6.074,5.051-6.074a5.058,5.058,0,0,1,5.051,5.053.327.327,0,0,0,.655,0,5.056,5.056,0,0,1,5.051-5.049,4.534,4.534,0,0,1,3.775,1.95A7.125,7.125,0,0,1,40.512,31.048Z" fill="#252525"/>
    <path id="Path_282" data-name="Path 282" d="M69.617,195.73l.876-4.66.769,6.14a.327.327,0,0,0,.312.286h.013a.327.327,0,0,0,.321-.262l.957-4.719.513,1.7a.327.327,0,0,0,.312.233h0a.327.327,0,0,0,.312-.229l.363-1.154.233.649a.327.327,0,0,0,.308.217h4.91a.327.327,0,1,0,0-.655h-4.68l-.483-1.348a.327.327,0,0,0-.62.012l-.336,1.069-.581-1.925a.327.327,0,0,0-.634.03l-.818,4.035-.78-6.233a.327.327,0,0,0-.647-.02l-.985,5.238L68.725,192a.327.327,0,0,0-.618-.052l-.616,1.417H62.327a.327.327,0,1,0,0,.655h5.378a.327.327,0,0,0,.3-.2l.316-.727.656,2.65a.327.327,0,0,0,.639-.018Z" transform="translate(-40.989 -156.622)" fill="#252525"/>
  </g>
</svg>
