<svg xmlns="http://www.w3.org/2000/svg" width="35.796" height="30.791" viewBox="0 0 35.796 30.791">
  <g id="insurance" transform="translate(-16.517 -50)">
    <path id="Path_332" data-name="Path 332" d="M264.182,217.3h0a.515.515,0,0,1,.513.517.448.448,0,0,0,.447.45h0a.448.448,0,0,0,.448-.446,1.413,1.413,0,0,0-.957-1.341v-.155a.448.448,0,0,0-.447-.45h0a.448.448,0,0,0-.448.447v.155a1.411,1.411,0,0,0,.437,2.751.515.515,0,1,1,0,1.029h-.016a.514.514,0,0,1-.5-.516.448.448,0,0,0-.446-.45h0a.448.448,0,0,0-.448.447,1.409,1.409,0,0,0,.957,1.342v.2a.448.448,0,0,0,.447.451h0a.448.448,0,0,0,.448-.447v-.2a1.411,1.411,0,0,0-.437-2.751.515.515,0,0,1,0-1.03Zm9.16-6.4-.924,0h0a.448.448,0,0,0,0,.9l.924,0h0a.448.448,0,0,0,0-.9Zm-10.24.867,7.716.019h0a.448.448,0,0,0,0-.9l-7.716-.019h0a.448.448,0,1,0,0,.9Zm10.25-3.219-.924,0h0a.448.448,0,0,0,0,.9l.924,0h0a.448.448,0,0,0,0-.9Zm-10.241.867,7.716.019h0a.448.448,0,0,0,0-.9l-7.716-.019h0a.448.448,0,0,0,0,.9Zm10.221,3.837-.924,0h0a.448.448,0,1,0,0,.9l.924,0h0a.448.448,0,1,0,0-.9Zm-10.24.867,7.716.019h0a.448.448,0,0,0,0-.9l-7.716-.019h0a.448.448,0,0,0,0,.9Zm8.612,6.443-4.754-.006h0a.448.448,0,1,0,0,.9l4.754.006h0a.448.448,0,0,0,0-.9Zm1.488.006h-.186a.448.448,0,0,0,0,.9h.186a.448.448,0,1,0,0-.9Zm-6.228-2.449a.448.448,0,0,0-.028.9l.206.006h.014a.448.448,0,0,0,.014-.9Zm6.226.013h-4.732a.448.448,0,1,0,0,.9h4.732a.448.448,0,1,0,0-.9Z" transform="translate(-227.733 -146.674)" fill="#fff"/>
    <path id="Path_333" data-name="Path 333" d="M49.639,59.7h-.011L37.8,59.663V54.3a3.02,3.02,0,0,0-3.017-3.017H31.762v-.83A.448.448,0,0,0,31.313,50H23a.448.448,0,0,0-.448.448v.83H19.534A3.02,3.02,0,0,0,16.517,54.3V74.745a3.02,3.02,0,0,0,3.017,3.017H30.1v.144a2.888,2.888,0,0,0,2.885,2.885H44.73a3.064,3.064,0,0,0,3.059-3.049l.035-10.663,4.013.081a.448.448,0,0,0,.457-.446l.018-4.315a2.688,2.688,0,0,0-2.674-2.7ZM23.45,50.9h7.415v2.3H23.45Zm7.1,25a.448.448,0,0,0-.448.448v.524H19.534a2.122,2.122,0,0,1-2.12-2.12V54.3a2.122,2.122,0,0,1,2.12-2.12h3.019v1.469a.448.448,0,0,0,.448.448h8.312a.448.448,0,0,0,.448-.448V52.175h3.019A2.122,2.122,0,0,1,36.9,54.3v5.365l-.912,0h-.012A2.675,2.675,0,0,0,33.3,62.321l-.05,13.571Zm2.436,4A1.99,1.99,0,0,1,31,77.906V76.789h10.67v.943a3.05,3.05,0,0,0,.9,2.162ZM46.928,66.559a.453.453,0,0,0,0,.054.459.459,0,0,0,0,.069l-.036,11.058a2.162,2.162,0,0,1-4.324-.007V76.341a.448.448,0,0,0-.448-.448h-7.97l.05-13.567a1.778,1.778,0,0,1,1.779-1.771h.007l11.647.038a2.675,2.675,0,0,0-.69,1.784Zm4.471-.3-3.573-.072.012-3.8A1.79,1.79,0,0,1,49.627,60.6h.007a1.791,1.791,0,0,1,1.781,1.8Z" fill="#fff"/>
    <path id="Path_334" data-name="Path 334" d="M102.507,156.7l-4.484-2.2a.448.448,0,0,0-.395,0L93.144,156.7a.448.448,0,0,0-.251.4v4.2a3.785,3.785,0,0,0,.382,1.564,4.078,4.078,0,0,0,1.309,1.63l2.989,2.037a.448.448,0,0,0,.5,0l2.989-2.037a4.264,4.264,0,0,0,1.691-3.195v-4.191a.448.448,0,0,0-.251-.4Zm-.646,4.594a3.377,3.377,0,0,1-1.3,2.453l-2.737,1.865-2.737-1.865a3.212,3.212,0,0,1-1-1.267,2.933,2.933,0,0,1-.3-1.187v-3.918l4.036-1.974,4.036,1.98Z" transform="translate(-70.668 -96.65)" fill="#fff"/>
    <path id="Path_335" data-name="Path 335" d="M128.266,215a.448.448,0,0,0-.626.642l1.355,1.321a.448.448,0,0,0,.626,0l2.44-2.38a.448.448,0,1,0-.626-.642l-2.127,2.075Z" transform="translate(-102.693 -151.571)" fill="#fff"/>
  </g>
</svg>
