<svg xmlns="http://www.w3.org/2000/svg" width="15.433" height="22.178" viewBox="0 0 15.433 22.178">
  <g id="_062-medical" data-name="062-medical" transform="translate(0 0)">
    <path id="Path_277" data-name="Path 277" d="M114.3,47.219a10.617,10.617,0,0,1-1.264-4.618,7.044,7.044,0,0,1,4.1-6.391,7.046,7.046,0,0,0-5.559,6.878,10.618,10.618,0,0,0,1.264,4.618c.981,2.086,4.572,7.49,5.649,9.1a.146.146,0,0,0,.242,0c.189-.282.455-.681.771-1.158C118.1,53.543,115.168,49.072,114.3,47.219Z" transform="translate(-110.89 -35.371)" fill="#252525"/>
    <path id="Path_278" data-name="Path 278" d="M149.529,60.087a5.451,5.451,0,1,0,5.451,5.451A5.451,5.451,0,0,0,149.529,60.087Zm0,10.22a4.769,4.769,0,1,1,4.769-4.769A4.769,4.769,0,0,1,149.529,70.307Z" transform="translate(-141.813 -58.086)" fill="#252525"/>
    <path id="Path_279" data-name="Path 279" d="M105.284,19a7.725,7.725,0,0,0-7.716,7.717,8.871,8.871,0,0,0,.41,2.624,17.083,17.083,0,0,0,.919,2.285c.974,2.071,4.311,7.114,5.7,9.186a.826.826,0,0,0,.688.367h0a.826.826,0,0,0,.687-.367c1.385-2.067,4.712-7.1,5.7-9.185A10.8,10.8,0,0,0,113,26.716,7.725,7.725,0,0,0,105.284,19Zm5.771,12.334c-1,2.1-4.576,7.495-5.65,9.1a.146.146,0,0,1-.242,0c-1.077-1.607-4.668-7.011-5.649-9.1a10.618,10.618,0,0,1-1.264-4.618,7.035,7.035,0,0,1,14.069,0A10.081,10.081,0,0,1,111.056,31.334Z" transform="translate(-97.568 -19)" fill="#252525"/>
    <path id="Path_280" data-name="Path 280" d="M200.26,115.851h-1.315v-1.315a.536.536,0,0,0-.536-.536h-1.023a.536.536,0,0,0-.536.536v1.315h-1.315a.536.536,0,0,0-.536.536v1.023a.536.536,0,0,0,.536.536h1.315v1.315a.536.536,0,0,0,.536.536h1.023a.536.536,0,0,0,.536-.536v-1.315h1.315a.536.536,0,0,0,.536-.536v-1.023A.536.536,0,0,0,200.26,115.851Zm-.146,1.412H198.8a.536.536,0,0,0-.536.536v1.315h-.731V117.8a.536.536,0,0,0-.536-.536h-1.315v-.731H197a.536.536,0,0,0,.536-.536v-1.315h.731V116a.536.536,0,0,0,.536.536h1.315Z" transform="translate(-190.255 -109.373)" fill="#252525"/>
  </g>
</svg>
