<svg xmlns="http://www.w3.org/2000/svg" width="67.227" height="86.288" viewBox="0 0 67.227 86.288">
  <g id="property" transform="translate(-64.343 -10)">
    <path id="Path_261" data-name="Path 261" d="M104.277,479H93.024l.235,1.929h11.606Z" transform="translate(-23.651 -386.746)" fill="#d4e1f4"/>
    <path id="Path_262" data-name="Path 262" d="M189.075,352.844l-17.66,12.125a13.1,13.1,0,0,1-8.027,1.111L151.8,363.948a5.351,5.351,0,0,0-3.9.53l-.049.029-5.124,3.239-3.09-10.135-.056.02,3.672,12.044,5.124-3.239.049-.029a5.351,5.351,0,0,1,3.9-.53l11.583,2.133a13.1,13.1,0,0,0,8.027-1.111l19.1-13.115A3.6,3.6,0,0,0,189.075,352.844Z" transform="translate(-62.05 -282.715)" fill="#d4e1f4"/>
    <g id="Group_1239" data-name="Group 1239" transform="translate(64.343 10)">
      <path id="Path_263" data-name="Path 263" d="M176.152,142.74h11.428a1.052,1.052,0,1,0,0-2.1H176.152a1.052,1.052,0,0,0,0,2.1Z" transform="translate(-155.675 -117.724)" fill="#1ae5be"/>
      <path id="Path_264" data-name="Path 264" d="M290.994,200.161h7.369a1.052,1.052,0,0,0,0-2.1h-7.369a1.052,1.052,0,1,0,0,2.1Z" transform="translate(-250.376 -165.074)" fill="#1ae5be"/>
      <path id="Path_265" data-name="Path 265" d="M176.152,176.968h11.428a1.052,1.052,0,0,0,0-2.1H176.152a1.052,1.052,0,0,0,0,2.1Z" transform="translate(-155.675 -145.949)" fill="#1ae5be"/>
      <path id="Path_266" data-name="Path 266" d="M176.152,211.2h11.428a1.052,1.052,0,1,0,0-2.1H176.152a1.052,1.052,0,0,0,0,2.1Z" transform="translate(-155.675 -174.176)" fill="#1ae5be"/>
      <path id="Path_267" data-name="Path 267" d="M176.152,245.426h11.428a1.052,1.052,0,1,0,0-2.1H176.152a1.052,1.052,0,0,0,0,2.1Z" transform="translate(-155.675 -202.401)" fill="#1ae5be"/>
      <path id="Path_268" data-name="Path 268" d="M176.152,279.655h11.428a1.052,1.052,0,1,0,0-2.1H176.152a1.052,1.052,0,0,0,0,2.1Z" transform="translate(-155.675 -230.626)" fill="#1ae5be"/>
      <path id="Path_269" data-name="Path 269" d="M290.994,233.7h7.369a1.052,1.052,0,0,0,0-2.1h-7.369a1.052,1.052,0,1,0,0,2.1Z" transform="translate(-250.376 -192.73)" fill="#1ae5be"/>
      <path id="Path_270" data-name="Path 270" d="M298.363,265.133h-7.369a1.052,1.052,0,1,0,0,2.1h7.369a1.052,1.052,0,0,0,0-2.1Z" transform="translate(-250.376 -220.387)" fill="#1ae5be"/>
      <path id="Path_271" data-name="Path 271" d="M290.994,166.622h4.02a1.052,1.052,0,1,0,0-2.1h-4.02a1.052,1.052,0,1,0,0,2.1Z" transform="translate(-250.376 -137.417)" fill="#1ae5be"/>
      <path id="Path_272" data-name="Path 272" d="M290.994,133.084h.672a1.052,1.052,0,0,0,0-2.1h-.672a1.052,1.052,0,1,0,0,2.1Z" transform="translate(-250.376 -109.761)" fill="#1ae5be"/>
      <path id="Path_273" data-name="Path 273" d="M176.152,108.511h11.428a1.052,1.052,0,0,0,0-2.1H176.152a1.052,1.052,0,0,0,0,2.1Z" transform="translate(-155.675 -89.498)" fill="#1ae5be"/>
      <path id="Path_274" data-name="Path 274" d="M379.268,285.062h-3.516a1.052,1.052,0,0,0,0,2.1h3.516a1.052,1.052,0,1,0,0-2.1Z" transform="translate(-320.269 -236.821)" fill="#1ae5be"/>
      <path id="Path_275" data-name="Path 275" d="M375.752,264.535h3.516a1.052,1.052,0,1,0,0-2.1h-3.516a1.052,1.052,0,0,0,0,2.1Z" transform="translate(-320.269 -218.158)" fill="#1ae5be"/>
      <path id="Path_276" data-name="Path 276" d="M375.752,241.9h3.516a1.052,1.052,0,1,0,0-2.1h-3.516a1.052,1.052,0,0,0,0,2.1Z" transform="translate(-320.269 -199.497)" fill="#1ae5be"/>
      <path id="Path_277" data-name="Path 277" d="M89.066,207.793h6.213a1.052,1.052,0,1,0,0-2.1H89.066a1.052,1.052,0,1,0,0,2.1Z" transform="translate(-83.863 -171.368)" fill="#1ae5be"/>
      <path id="Path_278" data-name="Path 278" d="M95.279,228.648H89.066a1.052,1.052,0,0,0,0,2.1h6.213a1.052,1.052,0,0,0,0-2.1Z" transform="translate(-83.863 -190.301)" fill="#1ae5be"/>
      <path id="Path_279" data-name="Path 279" d="M95.279,274.567H89.066a1.052,1.052,0,1,0,0,2.1h6.213a1.052,1.052,0,1,0,0-2.1Z" transform="translate(-83.863 -228.167)" fill="#1ae5be"/>
      <path id="Path_280" data-name="Path 280" d="M95.279,251.607H89.066a1.052,1.052,0,1,0,0,2.1h6.213a1.052,1.052,0,1,0,0-2.1Z" transform="translate(-83.863 -209.233)" fill="#1ae5be"/>
      <path id="Path_281" data-name="Path 281" d="M127.33,45.643h-1.782V43.922A1.052,1.052,0,0,0,124.5,42.87h-1.669V40.844a1.052,1.052,0,1,0-2.1,0V42.87h-1.67A1.052,1.052,0,0,0,118,43.922v1.721h-.73V38.559a9.863,9.863,0,1,0-10.277-13.293h-4.6V21.214a1.052,1.052,0,0,0-1.052-1.052H99.348V15.282A1.052,1.052,0,0,0,98.3,14.23h-6.93V11.052a1.052,1.052,0,1,0-2.1,0V14.23h-6.49a1.052,1.052,0,0,0-1.052,1.052v4.879H79.726a1.052,1.052,0,0,0-1.052,1.052v12.4L76.467,34.7v-2.24a1.052,1.052,0,0,0-1.052-1.052H73.536v-.867a1.052,1.052,0,1,0-2.1,0v.867H69.2a1.052,1.052,0,0,0-1.052,1.052V38.8L64.931,40.38a1.052,1.052,0,0,0-.588.944V63.1A1.052,1.052,0,0,0,65.4,64.154H127.33a1.052,1.052,0,0,0,1.052-1.052V46.7a1.052,1.052,0,0,0-1.052-1.052Zm-7.226-.668h3.339v.668H120.1Zm-3.887-23.98a7.759,7.759,0,1,1-7.758,7.759,7.759,7.759,0,0,1,7.758-7.759Zm-9.764,6.376a9.9,9.9,0,0,0-.1,1.382,9.782,9.782,0,0,0,1.955,5.9,9.922,9.922,0,0,0,6.855,3.908V62.05H102.393V27.371ZM83.824,16.335h13.42v3.827H83.824Zm16.465,5.931V62.05H80.779V22.266ZM70.254,33.516h4.108v2.223l-4.108,2.022ZM66.448,41.98l12.227-6.016V62.05H66.448Zm59.83,20.07H117.27v-14.3h9.008Z" transform="translate(-64.343 -10)" fill="#1ae5be"/>
      <path id="Path_282" data-name="Path 282" d="M345.389,89.836h-.031a1.033,1.033,0,0,1-1.017-1.031,1.052,1.052,0,0,0-2.1,0,3.139,3.139,0,0,0,2.085,2.951v.374a1.052,1.052,0,1,0,2.1,0v-.373a3.135,3.135,0,0,0-1.052-6.088,1.032,1.032,0,1,1,1.032-1.032,1.052,1.052,0,0,0,2.1,0,3.139,3.139,0,0,0-2.085-2.951v-.279a1.052,1.052,0,1,0-2.1,0v.279a3.135,3.135,0,0,0,1.052,6.088,1.032,1.032,0,1,1,.015,2.064Z" transform="translate(-293.499 -68.014)" fill="#1ae5be"/>
    </g>
    <path id="Path_283" data-name="Path 283" d="M108.065,456.926a2.913,2.913,0,1,0,2.913-2.913A2.913,2.913,0,0,0,108.065,456.926Zm2.913-.809a.809.809,0,1,1-.809.809A.809.809,0,0,1,110.978,456.118Z" transform="translate(-36.054 -366.141)" fill="#0635c9"/>
    <path id="Path_284" data-name="Path 284" d="M132.263,336.06a5.7,5.7,0,0,0-7.6-2.079l-.21.113a4.9,4.9,0,0,0-5.735-1.335l-.023.012-.7.376a6.326,6.326,0,0,0-7.144-.575l-4.31,2.345h-5.747a8.182,8.182,0,0,1-3.542-.811l-.8-.386a13.858,13.858,0,0,0-14.422,1.408c-.023.018-.045.035-.067.055L80.041,336.9a6.493,6.493,0,0,1-2.271,1.312L76.73,334.8a1.052,1.052,0,0,0-1.007-.745H66.418a1.052,1.052,0,0,0-1.045,1.179l3.1,25.435a1.052,1.052,0,0,0,1.044.925H83.479a1.052,1.052,0,0,0,1.007-1.359l-1.793-5.881,5.586-3.532a3.257,3.257,0,0,1,2.368-.3l.066.014,11.618,2.14a15.224,15.224,0,0,0,9.405-1.328,1.036,1.036,0,0,0,.129-.076l20.094-13.8A1.052,1.052,0,0,0,132.263,336.06Zm-12.585-1.428a2.7,2.7,0,0,1,2.827.513l-7.384,3.983-.26.137a6.794,6.794,0,0,0-.864-1.572Zm-7.81-.216.025-.014a4.219,4.219,0,0,1,4-.121l-3.471,1.87a6.77,6.77,0,0,0-1.984-.958ZM70.452,359.488l-2.845-23.331h7.338l7.113,23.331Zm40.283-10a13.1,13.1,0,0,1-8.027,1.111l-11.583-2.133a5.351,5.351,0,0,0-3.9.53l-.049.029-5.124,3.239-3.672-12.044a8.6,8.6,0,0,0,3.057-1.753l1.891-1.684a11.761,11.761,0,0,1,12.207-1.17l.8.386a10.3,10.3,0,0,0,4.458,1.021h7.728a4.7,4.7,0,0,1,4.562,3.587l-5.36-.243a33.68,33.68,0,0,0-6.13.283,1.052,1.052,0,1,0,.288,2.085,31.576,31.576,0,0,1,5.746-.265l6.592.3h.048a1.052,1.052,0,0,0,1.052-1.052c0-.1,0-.206-.008-.309l.8-.421,9.549-5.151a3.6,3.6,0,0,1,4.177.54Z" transform="translate(-0.844 -265.305)" fill="#4099ff"/>
    <path id="Path_285" data-name="Path 285" d="M108.065,456.926a2.913,2.913,0,1,0,2.913-2.913A2.913,2.913,0,0,0,108.065,456.926Zm2.913-.809a.809.809,0,1,1-.809.809A.809.809,0,0,1,110.978,456.118Z" transform="translate(-36.054 -366.141)" fill="#0635c9"/>
  </g>
</svg>
